<svg width="165" height="230" viewBox="0 0 165 230" fill="none" xmlns="http://www.w3.org/2000/svg">
<path d="M31.4038 230H133.577L157.683 30.9615H7.0769L31.4038 230Z" fill="#E2E2E2"/>
<path d="M57.2789 30.9615H7.2981L31.625 229.558H65.6827L57.2789 30.9615Z" fill="#EFEFEF"/>
<path d="M107.702 30.9615H157.683L133.356 229.558H99.2981L107.702 30.9615Z" fill="#BFBFBF"/>
<path d="M57.9423 178.25L54.8462 80.4999H114.115L105.712 178.25H57.9423Z" fill="#4B0C5B"/>
<path d="M12.8269 80.5V80.0577H11.9423L11.5 80.5L23.8846 178.692L24.7692 178.913V178.25H63.0288L58.3846 80.5H12.8269Z" fill="#6A1181"/>
<path d="M151.49 80.4999V80.0576H152.375L152.817 80.4999L140.433 178.692L139.548 178.913V178.25H101.288L105.933 80.4999H151.49Z" fill="#2C0735"/>
<path d="M107.481 0H57.2788L56.6154 30.2981H107.481V0Z" fill="#E2E2E2"/>
<path d="M161.442 15.0385L164.538 30.2981H107.26V0H148.615C150.208 0 151.048 1.47436 151.269 2.21154L152.817 11.9423H157.683C160.336 11.7654 161.295 13.9327 161.442 15.0385Z" fill="#BFBFBF"/>
<path d="M3.09624 15.0385L8.39233e-05 30.2981H57.2789V0H15.9232C14.3309 0 13.4905 1.47436 13.2693 2.21154L11.7212 11.9423H6.85585C4.202 11.7654 3.24367 13.9327 3.09624 15.0385Z" fill="#EFEFEF"/>
</svg>
