<svg width="144" height="200" viewBox="0 0 144 200" fill="none" xmlns="http://www.w3.org/2000/svg">
<path d="M27.3077 200H116.154L137.115 26.9231H6.15387L27.3077 200Z" fill="#E2E2E2"/>
<path d="M49.8077 26.9231H6.34613L27.5 199.615H57.1153L49.8077 26.9231Z" fill="#EFEFEF"/>
<path d="M93.6538 26.9231H137.115L115.962 199.615H86.3461L93.6538 26.9231Z" fill="#BFBFBF"/>
<path d="M50.3847 155L47.6924 69.9999H99.2308L91.9231 155H50.3847Z" fill="#4B0C5B"/>
<path d="M11.1539 70V69.6154H10.3847L10.0001 70L20.7693 155.385L21.5385 155.577V155H54.8077L50.7693 70H11.1539Z" fill="#6A1181"/>
<path d="M131.731 70V69.6154H132.5L132.885 70L122.115 155.385L121.346 155.577V155H88.0768L92.1153 70H131.731Z" fill="#2C0735"/>
<path d="M93.4615 0H49.8076L49.2307 26.3461H93.4615V0Z" fill="#E2E2E2"/>
<path d="M140.384 13.0769L143.077 26.3461H93.269V0H129.231C130.615 0 131.346 1.28205 131.538 1.92308L132.884 10.3846H137.115C139.423 10.2308 140.256 12.1154 140.384 13.0769Z" fill="#BFBFBF"/>
<path d="M2.69248 13.0769L0.000175476 26.3461H49.8079V0H13.8463C12.4617 0 11.7309 1.28205 11.5386 1.92308L10.1925 10.3846H5.96171C3.65402 10.2308 2.82069 12.1154 2.69248 13.0769Z" fill="#EFEFEF"/>
</svg>
