<svg width="122" height="170" viewBox="0 0 122 170" fill="none" xmlns="http://www.w3.org/2000/svg">
<path d="M23.2116 170H98.7308L116.548 22.8846H5.23083L23.2116 170Z" fill="#E2E2E2"/>
<path d="M42.3366 22.8846H5.39429L23.3751 169.673H48.5481L42.3366 22.8846Z" fill="#EFEFEF"/>
<path d="M79.6057 22.8846H116.548L98.5673 169.673H73.3942L79.6057 22.8846Z" fill="#BFBFBF"/>
<path d="M42.827 131.75L40.5385 59.4999H84.3462L78.1347 131.75H42.827Z" fill="#4B0C5B"/>
<path d="M9.48089 59.5V59.1731H8.82705L8.50012 59.5L17.654 132.077L18.3078 132.24V131.75H46.5867L43.154 59.5H9.48089Z" fill="#6A1181"/>
<path d="M111.971 59.5V59.173H112.625L112.952 59.5L103.798 132.077L103.144 132.24V131.75H74.8654L78.2981 59.5H111.971Z" fill="#2C0735"/>
<path d="M79.4423 0H42.3365L41.8461 22.3942H79.4423V0Z" fill="#E2E2E2"/>
<path d="M119.327 11.1154L121.615 22.3942H79.2788V0H109.846C111.023 0 111.644 1.08974 111.808 1.63462L112.952 8.82692H116.548C118.51 8.69615 119.218 10.2981 119.327 11.1154Z" fill="#BFBFBF"/>
<path d="M2.28848 11.1154L1.90735e-05 22.3942H42.3365V0H11.7692C10.5923 0 9.97117 1.08974 9.80771 1.63462L8.66348 8.82692H5.06733C3.10579 8.69615 2.39745 10.2981 2.28848 11.1154Z" fill="#EFEFEF"/>
</svg>
